<?xml version="1.0" encoding="UTF-8" standalone="no"?>
<!-- Created with Inkscape (http://www.inkscape.org/) -->

<svg
   xmlns:dc="http://purl.org/dc/elements/1.1/"
   xmlns:cc="http://creativecommons.org/ns#"
   xmlns:rdf="http://www.w3.org/1999/02/22-rdf-syntax-ns#"
   xmlns:svg="http://www.w3.org/2000/svg"
   xmlns="http://www.w3.org/2000/svg"
   xmlns:sodipodi="http://sodipodi.sourceforge.net/DTD/sodipodi-0.dtd"
   xmlns:inkscape="http://www.inkscape.org/namespaces/inkscape"
   width="10.403639mm"
   height="9.1609859mm"
   viewBox="0 0 10.403639 9.1609859"
   version="1.1"
   id="svg8"
   inkscape:version="0.92.3 (2405546, 2018-03-11)"
   sodipodi:docname="sensor.svg">
  <defs
     id="defs2">
    <inkscape:perspective
       sodipodi:type="inkscape:persp3d"
       inkscape:vp_x="7.7273687 : 164.81683 : 1"
       inkscape:vp_y="0 : 897.99847 : 0"
       inkscape:vp_z="196.30706 : 164.81683 : 1"
       inkscape:persp3d-origin="102.01722 : 120.36591 : 1"
       id="perspective7104" />
  </defs>
  <sodipodi:namedview
     id="base"
     pagecolor="#ffffff"
     bordercolor="#666666"
     borderopacity="1.0"
     inkscape:pageopacity="0.0"
     inkscape:pageshadow="2"
     inkscape:zoom="2.8"
     inkscape:cx="67.471555"
     inkscape:cy="-27.619754"
     inkscape:document-units="mm"
     inkscape:current-layer="g849"
     showgrid="false"
     inkscape:window-width="1920"
     inkscape:window-height="1001"
     inkscape:window-x="-9"
     inkscape:window-y="-9"
     inkscape:window-maximized="1" />
  <metadata
     id="metadata5">
    <rdf:RDF>
      <cc:Work
         rdf:about="">
        <dc:format>image/svg+xml</dc:format>
        <dc:type
           rdf:resource="http://purl.org/dc/dcmitype/StillImage" />
        <dc:title></dc:title>
      </cc:Work>
    </rdf:RDF>
  </metadata>
  <g
     inkscape:label="Layer 1"
     inkscape:groupmode="layer"
     id="layer1"
     transform="translate(-15.159879,-80.744964)">
    <g
       id="g849">
      <g
         id="g855"
         transform="rotate(-35,21.166667,85.57428)"
         style="fill:#00000f;fill-opacity:1">
        <path
           inkscape:connector-curvature="0"
           d="m 21.175581,88.102726 c -0.881213,-0.02093 -1.700801,0.361606 -2.325956,1.06053 l 0.394291,0.352691 c 0.521286,-0.582652 1.204319,-0.90227 1.922621,-0.884184 0.724375,0.01253 1.402886,0.354501 1.910349,0.962862 l 0.406435,-0.338998 c -0.607586,-0.72825 -1.427174,-1.137786 -2.30774,-1.152901 z"
           id="path817"
           style="stroke-width:0.26458332;fill:#00000f;fill-opacity:1" />
        <path
           inkscape:connector-curvature="0"
           d="m 21.179586,85.920043 c -1.273824,-0.01486 -2.476464,0.527487 -3.388295,1.546805 l 0.394291,0.352691 c 0.807961,-0.902916 1.874951,-1.384282 2.984831,-1.370459 1.125642,0.01951 2.178678,0.549321 2.964806,1.491899 l 0.406435,-0.338998 c -0.88625,-1.062467 -2.080234,-1.659846 -3.362068,-1.681938 z"
           id="path819"
           style="stroke-width:0.26458332;fill:#00000f;fill-opacity:1" />
        <path
           inkscape:connector-curvature="0"
           d="m 21.199094,83.737618 c -1.867845,-0.02894 -3.640088,0.685488 -4.984709,2.021453 l 0.373104,0.375429 c 1.242172,-1.234808 2.872305,-1.897429 4.602432,-1.867716 1.728189,0.0301 3.341656,0.751763 4.543133,2.032047 l 0.385765,-0.361993 c -1.30005,-1.385575 -3.04723,-2.166535 -4.919725,-2.19922 z"
           id="path821"
           style="stroke-width:0.26458332;fill:#00000f;fill-opacity:1" />
        <path
           inkscape:connector-curvature="0"
           d="m 21.210979,81.555193 c -2.363551,-0.0394 -4.612897,0.848398 -6.317444,2.505532 l 0.36897,0.379305 c 1.602615,-1.558045 3.711143,-2.388614 5.939301,-2.3558 2.228159,0.03889 4.307877,0.949167 5.856103,2.563151 l 0.381889,-0.366386 c -1.646541,-1.716432 -3.858679,-2.684461 -6.228819,-2.725802 z"
           id="path823"
           style="stroke-width:0.26458332;fill:#00000f;fill-opacity:1" />
      </g>
    </g>
  </g>
</svg>
